<svg width="161" height="29" viewBox="0 0 161 29" fill="none" xmlns="http://www.w3.org/2000/svg">
<path d="M48.9 7.04H52.8C54.5067 7.04 55.78 7.62667 56.62 8.8C57.46 9.97333 57.88 11.7133 57.88 14.02C57.88 16.3267 57.46 18.0667 56.62 19.24C55.78 20.4133 54.5067 21 52.8 21H48.9V7.04ZM52.72 19.54C53.84 19.54 54.68 19.1533 55.24 18.38C55.8133 17.6067 56.1 16.5133 56.1 15.1V12.94C56.1 11.5267 55.8133 10.4333 55.24 9.66C54.68 8.88667 53.84 8.5 52.72 8.5H50.58V19.54H52.72ZM60.7922 21V7.04H69.3922V8.5H62.4722V13.2H69.1522V14.66H62.4722V19.54H69.3922V21H60.7922ZM72.6644 21V19.66H76.1444V8.38H72.6644V7.04H81.3044V8.38H77.8244V19.66H81.3044V21H72.6644ZM86.2366 9.18H86.0966V21H84.5766V7.04H86.9566L91.7166 18.74H91.8566V7.04H93.3766V21H90.9966L86.2366 9.18ZM98.0688 15.76V14.08H103.869V15.76H98.0688ZM108.661 21V19.54H112.661V8.28H112.521L109.001 11.56L108.021 10.5L111.721 7.04H114.341V19.54H118.021V21H108.661Z" fill="#151515"/>
<g clip-path="url(#clip0_309_691)">
<path d="M13.9309 2.76221H12.5385V4.14252H13.9309V2.76221Z" fill="black"/>
<path d="M12.5384 0H11.1444V1.38031V2.76212H12.5384V1.38031V0Z" fill="black"/>
<path d="M11.1444 2.76221H9.75195V4.14252H11.1444V2.76221Z" fill="black"/>
<path d="M6.96545 4.14258V5.52439H8.35946H9.75195V4.14258H8.35946H6.96545Z" fill="black"/>
<path d="M5.573 6.90472V8.28653H6.96549V6.90472V5.52441H5.573V6.90472Z" fill="black"/>
<path d="M2.7865 12.4287V13.809H4.17899V12.4287V11.0469H2.7865V12.4287Z" fill="black"/>
<path d="M0 13.8091V15.1909H1.39249H2.78649V13.8091H1.39249H0Z" fill="black"/>
<path d="M2.7865 17.953H4.17899V16.5712V15.1909H2.7865V16.5712V17.953Z" fill="black"/>
<path d="M5.573 23.476H6.96549V22.0956V20.7153H5.573V22.0956V23.476Z" fill="black"/>
<path d="M5.57144 23.4756H4.17896V24.8559H5.57144V23.4756Z" fill="black"/>
<path d="M8.35946 24.8574H9.75195V23.4756H8.35946H6.96545V24.8574H8.35946Z" fill="black"/>
<path d="M11.1444 24.8574H9.75195V26.2377H11.1444V24.8574Z" fill="black"/>
<path d="M11.1444 28.9999H12.5384V27.6196V26.2378H11.1444V27.6196V28.9999Z" fill="black"/>
<path d="M13.9309 24.8574H12.5385V26.2377H13.9309V24.8574Z" fill="black"/>
<path d="M15.3249 23.4755V22.0952H13.9309V23.4755V24.8573H15.3249V23.4755Z" fill="black"/>
<path d="M11.1444 22.0952H9.75195V23.4755H11.1444V22.0952Z" fill="black"/>
<path d="M4.17899 24.8574H2.7865V26.2377H4.17899V24.8574Z" fill="black"/>
<path d="M4.17896 20.7152H5.57296V19.3334H6.96545V17.9531H5.57296H4.17896V19.3334V20.7152Z" fill="black"/>
<path d="M8.35794 16.5713H6.96545V17.9516H8.35794V16.5713Z" fill="black"/>
<path d="M4.17896 9.66644V11.0468H5.57296H6.96545V9.66644H5.57296V8.28613H4.17896V9.66644Z" fill="black"/>
<path d="M8.35794 11.0469H6.96545V12.4272H8.35794V11.0469Z" fill="black"/>
<path d="M5.57144 4.14258H4.17896V5.52289H5.57144V4.14258Z" fill="black"/>
<path d="M4.17899 2.76221H2.7865V4.14252H4.17899V2.76221Z" fill="black"/>
<path d="M11.1444 5.52441H9.75195V6.90472H11.1444V5.52441Z" fill="black"/>
<path d="M16.7053 5.52439V6.9047H18.0993V5.52439V4.14258H16.7053V5.52439Z" fill="black"/>
<path d="M19.4919 2.76221H18.0994V4.14252H19.4919V2.76221Z" fill="black"/>
<path d="M20.8843 0H19.4918V1.38031V2.76212H20.8843V1.38031V0Z" fill="black"/>
<path d="M22.2768 2.76221H20.8843V4.14252H22.2768V2.76221Z" fill="black"/>
<path d="M23.6708 4.14258H22.2783V5.52439H23.6708H25.0648V4.14258H23.6708Z" fill="black"/>
<path d="M26.4573 5.52441H25.0648V6.90472V8.28653H26.4573V6.90472V5.52441Z" fill="black"/>
<path d="M27.8513 8.28613H26.4573V9.66644H25.0648V11.0468H26.4573H27.8513V9.66644V8.28613Z" fill="black"/>
<path d="M29.2438 11.0469H27.8513V12.4287V13.809H29.2438V12.4287V11.0469Z" fill="black"/>
<path d="M30.6378 13.8091H30.606H29.2438V15.1909H30.606H30.6378H32V13.8091H30.6378Z" fill="black"/>
<path d="M27.8513 16.5712V17.953H29.2438V16.5712V15.1909H27.8513V16.5712Z" fill="black"/>
<path d="M25.0648 22.0956V23.476H26.4573V22.0956V20.7153H25.0648V22.0956Z" fill="black"/>
<path d="M27.8498 23.4756H26.4573V24.8559H27.8498V23.4756Z" fill="black"/>
<path d="M22.2783 23.4756V24.8574H23.6708H25.0648V23.4756H23.6708H22.2783Z" fill="black"/>
<path d="M22.2768 24.8574H20.8843V26.2377H22.2768V24.8574Z" fill="black"/>
<path d="M19.4918 27.6196V28.9999H20.8843V27.6196V26.2378H19.4918V27.6196Z" fill="black"/>
<path d="M19.4919 24.8574H18.0994V26.2377H19.4919V24.8574Z" fill="black"/>
<path d="M18.0993 22.0953V20.715V19.3332H19.4918H20.8843V18.4285V17.9529V16.5726V15.1907V13.8089V12.4271V11.0483V11.0468V9.99958V9.6665H19.4918H18.0993H16.7053V11.0483H18.0993H19.4918V12.4271V13.8089V15.1907V16.5726V17.9529H18.0993H16.7053V19.3332V20.715V22.0953V23.4756V24.8574H18.0993V23.4756V22.0953Z" fill="black"/>
<path d="M18.0993 15.1911H16.7053V15.1896V13.8092V13.8077V12.4274V12.4259V11.7358V11.0456H15.3249V10.5055V9.66682V8.43654V8.43504V6.9047V6.36608V5.52439V4.14258H13.9309V5.52439V6.36608V6.9047V8.43504V8.43654V9.66682H13.9188H12.5384H12.5248H11.1444V11.0471V11.0486V12.0674V12.4274V13.8092V15.1911V16.5714V16.5729V17.9532V19.3335H11.6409H12.5248H12.5384H13.9173H15.3113V17.9532H13.9173H12.5384V16.5729V16.5714V15.1911V13.8092V12.4274V12.0674V11.0486H13.9173L13.9188 11.0471V11.0486H15.3113V11.7358V12.4259V12.4274H13.9188V13.8077H15.3113V13.8092V15.1896V15.1911V16.5714V17.9532H16.7053V16.5714H18.0993V15.1911Z" fill="black"/>
<path d="M22.2768 22.0952H20.8843V23.4755H22.2768V22.0952Z" fill="black"/>
<path d="M29.2438 24.8574H27.8513V26.2377H29.2438V24.8574Z" fill="black"/>
<path d="M25.0648 17.9531V19.3334H26.4573V20.7152H27.8513V19.3334V17.9531H26.4573H25.0648Z" fill="black"/>
<path d="M25.0633 16.5713H23.6708V17.9516H25.0633V16.5713Z" fill="black"/>
<path d="M25.0633 11.0469H23.6708V12.4272H25.0633V11.0469Z" fill="black"/>
<path d="M27.8498 4.14258H26.4573V5.52289H27.8498V4.14258Z" fill="black"/>
<path d="M29.2438 2.76221H27.8513V4.14252H29.2438V2.76221Z" fill="black"/>
<path d="M22.2768 5.52441H20.8843V6.90472H22.2768V5.52441Z" fill="black"/>
</g>
<defs>
<clipPath id="clip0_309_691">
<rect width="32" height="29" fill="white"/>
</clipPath>
</defs>
</svg>
