<svg width="201" height="242" viewBox="0 0 201 242" fill="none" xmlns="http://www.w3.org/2000/svg">
<g clip-path="url(#clip0_309_588)">
<path d="M87.5037 17.4297H78.7571V26.1399H87.5037V17.4297Z" fill="black"/>
<path d="M78.7572 0H70.0011V8.71023V17.4299H78.7572V8.71023V0Z" fill="black"/>
<path d="M70.0011 17.4297H61.2545V26.1399H70.0011V17.4297Z" fill="black"/>
<path d="M43.7519 26.1401V34.8598H52.508H61.2545V26.1401H52.508H43.7519Z" fill="black"/>
<path d="M35.0053 43.5701V52.2898H43.7519V43.5701V34.8599H35.0053V43.5701Z" fill="black"/>
<path d="M17.5026 78.4301V87.1404H26.2492V78.4301V69.7104H17.5026V78.4301Z" fill="black"/>
<path d="M0 87.1401V95.8598H8.74657H17.5026V87.1401H8.74657H0Z" fill="black"/>
<path d="M17.5026 113.29H26.2492V104.57V95.8599H17.5026V104.57V113.29Z" fill="black"/>
<path d="M35.0053 148.14H43.7519V139.43V130.72H35.0053V139.43V148.14Z" fill="black"/>
<path d="M34.9958 148.14H26.2492V156.85H34.9958V148.14Z" fill="black"/>
<path d="M52.508 156.86H61.2545V148.14H52.508H43.7519V156.86H52.508Z" fill="black"/>
<path d="M70.0011 156.86H61.2545V165.57H70.0011V156.86Z" fill="black"/>
<path d="M70.0011 183H78.7572V174.29V165.57H70.0011V174.29V183Z" fill="black"/>
<path d="M87.5037 156.86H78.7571V165.57H87.5037V156.86Z" fill="black"/>
<path d="M96.2598 148.14V139.43H87.5037V148.14V156.86H96.2598V148.14Z" fill="black"/>
<path d="M70.0011 139.43H61.2545V148.14H70.0011V139.43Z" fill="black"/>
<path d="M26.2492 156.86H17.5026V165.57H26.2492V156.86Z" fill="black"/>
<path d="M26.2492 130.719H35.0053V122H43.7519V113.29H35.0053H26.2492V122V130.719Z" fill="black"/>
<path d="M52.4985 104.57H43.7519V113.281H52.4985V104.57Z" fill="black"/>
<path d="M26.2492 60.9998V69.71H35.0053H43.7519V60.9998H35.0053V52.2896H26.2492V60.9998Z" fill="black"/>
<path d="M52.4985 69.7104H43.7519V78.4207H52.4985V69.7104Z" fill="black"/>
<path d="M34.9958 26.1401H26.2492V34.8504H34.9958V26.1401Z" fill="black"/>
<path d="M26.2492 17.4297H17.5026V26.1399H26.2492V17.4297Z" fill="black"/>
<path d="M70.0011 34.8599H61.2545V43.5701H70.0011V34.8599Z" fill="black"/>
<path d="M104.93 34.8598V43.5701H113.686V34.8598V26.1401H104.93V34.8598Z" fill="black"/>
<path d="M122.433 17.4297H113.686V26.1399H122.433V17.4297Z" fill="black"/>
<path d="M131.18 0H122.433V8.71023V17.4299H131.18V8.71023V0Z" fill="black"/>
<path d="M139.926 17.4297H131.18V26.1399H139.926V17.4297Z" fill="black"/>
<path d="M148.682 26.1401H139.936V34.8598H148.682H157.438V26.1401H148.682Z" fill="black"/>
<path d="M166.185 34.8599H157.438V43.5701V52.2898H166.185V43.5701V34.8599Z" fill="black"/>
<path d="M174.941 52.2896H166.185V60.9998H157.438V69.71H166.185H174.941V60.9998V52.2896Z" fill="black"/>
<path d="M183.688 69.7104H174.941V78.4301V87.1404H183.688V78.4301V69.7104Z" fill="black"/>
<path d="M192.444 87.1401H192.244H183.688V95.8598H192.244H192.444H201V87.1401H192.444Z" fill="black"/>
<path d="M174.941 104.57V113.29H183.688V104.57V95.8599H174.941V104.57Z" fill="black"/>
<path d="M157.438 139.43V148.14H166.185V139.43V130.72H157.438V139.43Z" fill="black"/>
<path d="M174.931 148.14H166.185V156.85H174.931V148.14Z" fill="black"/>
<path d="M139.936 148.14V156.86H148.682H157.438V148.14H148.682H139.936Z" fill="black"/>
<path d="M139.926 156.86H131.18V165.57H139.926V156.86Z" fill="black"/>
<path d="M122.433 174.29V183H131.18V174.29V165.57H122.433V174.29Z" fill="black"/>
<path d="M122.433 156.86H113.686V165.57H122.433V156.86Z" fill="black"/>
<path d="M113.686 139.43V130.72V122H122.433H131.18V116.291V113.29V104.58V95.8598V87.1402V78.4205V69.7197V69.7102V63.1018V61H122.433H113.686H104.93V69.7197H113.686H122.433V78.4205V87.1402V95.8598V104.58V113.29H113.686H104.93V122V130.72V139.43V148.14V156.86H113.686V148.14V139.43Z" fill="black"/>
<path d="M113.686 95.8598H104.93V95.8504V87.1401V87.1307V78.4204V78.411V74.0559V69.7007H96.2598V66.2924V61V53.2365V53.2271V43.5701V40.1712V34.8598V26.1401H87.5038V34.8598V40.1712V43.5701V53.2271V53.2365V61H87.4277H78.7572H78.6716H70.0011V69.7102V69.7197V76.1482V78.4204V87.1401V95.8598V104.57V104.58V113.29V122H73.1194H78.6716H78.7572H87.4182H96.1743V113.29H87.4182H78.7572V104.58V104.57V95.8598V87.1401V78.4204V76.1482V69.7197H87.4182L87.4277 69.7102V69.7197H96.1743V74.0559V78.411V78.4204H87.4277V87.1307H96.1743V87.1401V95.8504V95.8598V104.57V113.29H104.93V104.57H113.686V95.8598Z" fill="black"/>
<path d="M139.926 139.43H131.18V148.14H139.926V139.43Z" fill="black"/>
<path d="M183.688 156.86H174.941V165.57H183.688V156.86Z" fill="black"/>
<path d="M157.438 113.29V122H166.185V130.719H174.941V122V113.29H166.185H157.438Z" fill="black"/>
<path d="M157.429 104.57H148.682V113.281H157.429V104.57Z" fill="black"/>
<path d="M157.429 69.7104H148.682V78.4207H157.429V69.7104Z" fill="black"/>
<path d="M174.931 26.1401H166.185V34.8504H174.931V26.1401Z" fill="black"/>
<path d="M183.688 17.4297H174.941V26.1399H183.688V17.4297Z" fill="black"/>
<path d="M139.926 34.8599H131.18V43.5701H139.926V34.8599Z" fill="black"/>
</g>
<path d="M31.8469 210.08H39.6469C43.0602 210.08 45.6069 211.253 47.2869 213.6C48.9669 215.947 49.8069 219.427 49.8069 224.04C49.8069 228.653 48.9669 232.133 47.2869 234.48C45.6069 236.827 43.0602 238 39.6469 238H31.8469V210.08ZM39.4869 235.08C41.7269 235.08 43.4069 234.307 44.5269 232.76C45.6735 231.213 46.2469 229.027 46.2469 226.2V221.88C46.2469 219.053 45.6735 216.867 44.5269 215.32C43.4069 213.773 41.7269 213 39.4869 213H35.2069V235.08H39.4869ZM55.6313 238V210.08H72.8313V213H58.9913V222.4H72.3513V225.32H58.9913V235.08H72.8313V238H55.6313ZM79.3756 238V235.32H86.3356V212.76H79.3756V210.08H96.6556V212.76H89.6956V235.32H96.6556V238H79.3756ZM106.52 214.36H106.24V238H103.2V210.08H107.96L117.48 233.48H117.76V210.08H120.8V238H116.04L106.52 214.36ZM130.184 227.52V224.16H141.784V227.52H130.184ZM151.369 238V235.08H159.369V212.56H159.089L152.049 219.12L150.089 217L157.489 210.08H162.729V235.08H170.089V238H151.369Z" fill="#151515"/>
<defs>
<clipPath id="clip0_309_588">
<rect width="201" height="183" fill="white"/>
</clipPath>
</defs>
</svg>
